<svg width="106" height="32" viewbox="0 0 106 32" xmlns="http://www.w3.org/2000/svg"><title>Github Stars Program</title><g fill="#24292f" fill-rule="evenodd"><path d="M53.455 12.645h2.861c-.086-3.159-2.871-5.451-6.866-5.451-3.947 0-6.973 2.263-6.973 5.663 0 2.744 1.96 4.352 5.12 5.21l2.323.635c2.104.559 3.727 1.252 3.727 3.005 0 1.926-1.835 3.197-4.36 3.197-2.286 0-4.188-1.02-4.36-3.168h-2.978c.192 3.572 2.949 5.778 7.357 5.778 4.62 0 7.28-2.437 7.28-5.778 0-3.554-3.16-4.93-5.657-5.547l-1.92-.501c-1.538-.395-3.583-1.117-3.574-3.005 0-1.675 1.527-2.918 3.948-2.918 2.257 0 3.86 1.06 4.072 2.88zm13.062-.25H63.49V8.85H60.62v3.544h-2.161v2.31h2.16v8.735c-.009 2.687 2.037 3.987 4.303 3.939.913-.01 1.527-.183 1.863-.308l-.518-2.379c-.192.039-.548.125-1.009.125-.931 0-1.767-.308-1.767-1.974v-8.137h3.026v-2.311zm7.198 15.119c2.44 0 3.813-1.242 4.36-2.35h.116v2.022h2.804v-9.822c0-4.305-3.38-5.162-5.724-5.162-2.67 0-5.128 1.078-6.089 3.775l2.7.616c.422-1.05 1.497-2.06 3.428-2.06 1.853 0 2.804.972 2.804 2.648v.067c0 1.05-1.076 1.03-3.726 1.339-2.795.327-5.657 1.06-5.657 4.42 0 2.908 2.18 4.507 4.984 4.507zm.625-2.311c-1.623 0-2.795-.732-2.795-2.158 0-1.54 1.364-2.09 3.025-2.31.932-.126 3.14-.376 3.554-.79v1.906c0 1.753-1.393 3.352-3.784 3.352zm10.21 1.983h2.87v-9.033c0-1.935 1.49-3.332 3.526-3.332.595 0 1.267.106 1.497.174V12.24a11.594 11.594 0 00-1.22-.068c-1.728 0-3.207.983-3.745 2.571h-.153v-2.35h-2.776v14.792zm21.162-11.18c-.595-2.302-2.391-3.804-5.58-3.804-3.332 0-5.695 1.762-5.695 4.382 0 2.1 1.268 3.495 4.034 4.112l2.497.549c1.421.317 2.084.953 2.084 1.877 0 1.146-1.22 2.042-3.102 2.042-1.72 0-2.824-.741-3.17-2.196l-2.775.424c.48 2.62 2.65 4.093 5.964 4.093 3.563 0 6.031-1.897 6.031-4.574 0-2.09-1.325-3.38-4.033-4.007l-2.344-.539C98 17.98 97.3 17.431 97.31 16.43c-.01-1.136 1.22-1.945 2.852-1.945 1.786 0 2.612.992 2.948 1.984l2.603-.462zM13.532 22.656c-4.126-.5-7.032-3.468-7.032-7.312 0-1.562.562-3.25 1.5-4.376-.406-1.03-.344-3.218.126-4.124 1.25-.156 2.936.5 3.936 1.406 1.188-.374 2.438-.562 3.97-.562 1.53 0 2.78.188 3.906.53.968-.874 2.688-1.53 3.938-1.374.436.844.5 3.03.092 4.094 1 1.186 1.532 2.78 1.532 4.406 0 3.844-2.906 6.75-7.094 7.28 1.062.688 1.78 2.188 1.78 3.908v3.25c0 .936.782 1.468 1.72 1.094C27.562 28.718 32 23.06 32 16.06 32 7.22 24.812 0 15.968 0 7.126 0 0 7.22 0 16.062a15.76 15.76 0 0 0 10.344 14.844c.844.312 1.656-.25 1.656-1.094v-2.5c-.438.188-1 .312-1.5.312-2.062 0-3.28-1.124-4.156-3.218-.344-.844-.72-1.344-1.438-1.438-.374-.03-.5-.186-.5-.374 0-.376.626-.656 1.25-.656.906 0 1.688.562 2.5 1.72.626.904 1.28 1.31 2.062 1.31s1.282-.28 2-1c.532-.53.94-1 1.314-1.312"></path></g></svg>